# xmcd
#
# Track frame offsets: 
#        150
#        20471
#        43018
#        63218
#        81846
#        101084
#        119495
#        137285
#        157425
#        175410
#        190713
#        211050
#
# Disc length: 3099 seconds
#
# Revision: 0
# Processed by: cddbd v1.5.2PL0 Copyright (c) Steve Scherf et al.
# Submitted via: ExactAudioCopy v1.0b4
#
DISCID=a20c190c
DTITLE=Laurie Morvan - Gravity
DYEAR=2018
DGENRE=Blues
TTITLE0=My Moderation
TTITLE1=Twice The Trouble
TTITLE2=Stay With Me
TTITLE3=Money Talks
TTITLE4=The Extra Mile
TTITLE5=Gravity
TTITLE6=Dance In The Rain
TTITLE7=Gotta Dig Deep
TTITLE8=The Man Who Left Me
TTITLE9=Shake Your Tailfeathers
TTITLE10=I Want Answers
TTITLE11=Too Dumb To Quit
EXTD=
EXTT0=
EXTT1=
EXTT2=
EXTT3=
EXTT4=
EXTT5=
EXTT6=
EXTT7=
EXTT8=
EXTT9=
EXTT10=
EXTT11=
PLAYORDER=
